HIERARCHY
ROOT Hips
{
	OFFSET 0.000000 0.000000 0.000000
	CHANNELS 6 Xposition Yposition Zposition Xrotation Yrotation Zrotation
	JOINT LeftUpLeg_virtual
	{
		OFFSET 0.000000 0.000000 0.000000
		CHANNELS 3 Xrotation Yrotation Zrotation
		JOINT LeftUpLeg
		{
			OFFSET 11.394100 -6.187798 -0.413800
			CHANNELS 3 Xrotation Yrotation Zrotation
			JOINT LeftLeg
			{
				OFFSET 0.430247 -32.302673 3.732800
				CHANNELS 3 Xrotation Yrotation Zrotation
				JOINT LeftFoot
				{
					OFFSET -0.430247 -48.264931 -6.423300
					CHANNELS 3 Xrotation Yrotation Zrotation
					JOINT LeftToeBase
					{
						OFFSET 4.230900 -16.068199 23.438400
						CHANNELS 3 Xrotation Yrotation Zrotation
						JOINT LeftToe_End
						{
							OFFSET 4.510700 0.695400 19.974600
							CHANNELS 3 Xrotation Yrotation Zrotation
							End Site
							{
								OFFSET 0 0 0
							}
						}
					}
				}
			}
		}
	}
	JOINT RightUpLeg_virtual
	{
		OFFSET 0.000000 0.000000 0.000000
		CHANNELS 3 Xrotation Yrotation Zrotation
		JOINT RightUpLeg
		{
			OFFSET -11.333700 -6.187798 -0.413800
			CHANNELS 3 Xrotation Yrotation Zrotation
			JOINT RightLeg
			{
				OFFSET -0.430392 -32.302628 3.733000
				CHANNELS 3 Xrotation Yrotation Zrotation
				JOINT RightFoot
				{
					OFFSET 0.430392 -48.264973 -6.423500
					CHANNELS 3 Xrotation Yrotation Zrotation
					JOINT RightToeBase
					{
						OFFSET -4.230900 -16.068199 23.438400
						CHANNELS 3 Xrotation Yrotation Zrotation
						JOINT RightToe_End
						{
							OFFSET -4.510700 0.695400 19.974600
							CHANNELS 3 Xrotation Yrotation Zrotation
							End Site
							{
								OFFSET 0 0 0
							}
						}
					}
				}
			}
		}
	}
	JOINT Spine_virtual
	{
		OFFSET 0.000000 0.000000 0.000000
		CHANNELS 3 Xrotation Yrotation Zrotation
		JOINT Spine
		{
			OFFSET -0.002400 12.777504 0.315300
			CHANNELS 3 Xrotation Yrotation Zrotation
			JOINT Spine1
			{
				OFFSET -0.002067 5.816869 0.032633
				CHANNELS 3 Xrotation Yrotation Zrotation
				JOINT Spine1_split
				{
					OFFSET -0.002067 5.816869 0.032633
					CHANNELS 3 Xrotation Yrotation Zrotation
					JOINT Spine2
					{
						OFFSET -0.002067 5.816869 0.032633
						CHANNELS 3 Xrotation Yrotation Zrotation
						JOINT Neck_virtual
						{
							OFFSET 0.000000 0.000000 0.000000
							CHANNELS 3 Xrotation Yrotation Zrotation
							JOINT Neck
							{
								OFFSET -0.003700 21.199493 -0.826900
								CHANNELS 3 Xrotation Yrotation Zrotation
								JOINT Head
								{
									OFFSET 0.000000 20.442200 4.834800
									CHANNELS 3 Xrotation Yrotation Zrotation
									JOINT HeadTop_End
									{
										OFFSET 0.000000 34.668396 4.968400
										CHANNELS 3 Xrotation Yrotation Zrotation
										End Site
										{
											OFFSET 0 0 0
										}
									}
								}
							}
						}
						JOINT LeftShoulder_virtual
						{
							OFFSET 0.000000 0.000000 0.000000
							CHANNELS 3 Xrotation Yrotation Zrotation
							JOINT LeftShoulder
							{
								OFFSET 3.288150 8.794197 -1.372250
								CHANNELS 3 Xrotation Yrotation Zrotation
								JOINT LeftShoulder_split
								{
									OFFSET 3.288150 8.794197 -1.372250
									CHANNELS 3 Xrotation Yrotation Zrotation
									JOINT LeftArm
									{
										OFFSET 11.953299 -2.279007 -0.146200
										CHANNELS 3 Xrotation Yrotation Zrotation
										JOINT LeftForeArm
										{
											OFFSET 18.448900 0.000000 0.000000
											CHANNELS 3 Xrotation Yrotation Zrotation
											JOINT LeftHand
											{
												OFFSET 29.527798 0.000000 0.000000
												CHANNELS 3 Xrotation Yrotation Zrotation
												End Site
												{
													OFFSET 0 0 0
												}
											}
										}
									}
								}
							}
						}
						JOINT RightShoulder_virtual
						{
							OFFSET 0.000000 0.000000 0.000000
							CHANNELS 3 Xrotation Yrotation Zrotation
							JOINT RightShoulder
							{
								OFFSET -3.249400 8.794197 -1.372250
								CHANNELS 3 Xrotation Yrotation Zrotation
								JOINT RightShoulder_split
								{
									OFFSET -3.249400 8.794197 -1.372250
									CHANNELS 3 Xrotation Yrotation Zrotation
									JOINT RightArm
									{
										OFFSET -11.953299 -2.279007 -0.146200
										CHANNELS 3 Xrotation Yrotation Zrotation
										JOINT RightForeArm
										{
											OFFSET -18.448900 0.000000 0.000000
											CHANNELS 3 Xrotation Yrotation Zrotation
											JOINT RightHand
											{
												OFFSET -29.527802 0.000000 0.000000
												CHANNELS 3 Xrotation Yrotation Zrotation
												End Site
												{
													OFFSET 0 0 0
												}
											}
										}
									}
								}
							}
						}
					}
				}
			}
		}
	}
}
MOTION
Frames: 4
Frame Time: 0.03333333
6.569230 100.813278 5.342541 0.000000 0.000000 0.000000 -4.031892 9.501959 7.007043 -20.356406 -3.072208 -1.282667 22.818187 7.915459 -0.771732 0.871593 10.184421 -1.711336 -2.241243 0.169037 -1.842890 0.000000 0.000000 0.000000 -4.585576 11.733340 6.815270 7.899684 -10.517390 -12.775015 17.246053 -13.130790 -1.580785 -6.156359 -29.287984 25.456439 -3.448304 -0.540792 -2.043726 0.000000 0.000000 0.000000 -1.506069 8.764608 6.340927 4.409499 2.583239 12.157508 7.438553 6.058245 1.296035 0.722658 -0.548564 0.292136 0.000000 0.000000 0.000000 0.984100 5.683356 2.899412 -13.593066 -10.590497 -4.352217 5.279198 -11.887090 -4.484687 0.000000 0.000000 0.000000 0.737158 5.675122 1.957856 -0.146950 1.875175 18.997112 -0.272282 -0.190438 -2.634623 -37.727796 2.626459 -9.880964 -22.508477 -29.608129 8.519799 0.000000 0.000000 0.000000 -0.973329 5.220199 2.523260 6.222429 1.797849 -1.026764 0.454642 2.960161 1.667472 38.091436 -49.064309 67.993591 -13.352922 31.008799 39.625571 0.000000 0.000000 0.000000 
5.963772 100.170227 5.903778 0.000000 0.000000 0.000000 -3.167159 20.160878 5.734116 -24.675069 -7.683352 -1.991716 23.206193 5.935591 -0.963787 2.652274 8.342357 -2.673424 -2.771418 0.679790 -1.978640 0.000000 0.000000 0.000000 -3.906280 21.949807 5.616208 10.607537 -16.877408 -10.523781 16.001960 -13.634306 -1.296723 -7.794967 -28.929823 26.427954 -4.880186 -0.783568 -1.305918 0.000000 0.000000 0.000000 0.114171 18.365072 5.193468 1.833428 4.014980 11.229564 6.593910 7.363778 0.030121 0.729716 -0.537259 0.152265 0.000000 0.000000 0.000000 0.523923 6.924315 1.708192 -17.007991 -15.999447 -1.301167 7.911604 -17.564142 -2.828380 0.000000 0.000000 0.000000 0.170047 7.012724 0.438034 -1.401144 8.118094 17.457129 -0.325684 -0.731195 -2.897288 -50.500919 6.279448 -13.437521 -27.353133 -29.899662 6.861477 0.000000 0.000000 0.000000 -1.038015 6.664834 1.134014 5.906098 1.852063 -1.226869 -0.347616 3.279309 2.443406 34.532781 -52.980210 70.846588 -13.624137 35.876457 38.742592 0.000000 0.000000 0.000000 
5.260029 99.521027 6.536835 0.000000 0.000000 0.000000 -1.582105 29.146453 4.303548 -29.839860 -11.722441 -3.215794 24.411501 4.516548 -1.274708 4.989191 6.945775 -2.737957 -2.652827 1.020911 -2.406534 0.000000 0.000000 0.000000 -2.273465 30.950415 4.296488 12.084774 -23.013213 -8.346681 15.312488 -13.868376 -0.888115 -10.147625 -28.383910 26.092315 -5.560496 -0.922684 -0.792811 0.000000 0.000000 0.000000 1.759850 26.615594 3.944147 -0.451542 5.460025 10.147958 5.962718 8.497914 -1.372916 0.554726 -0.636753 0.102081 0.000000 0.000000 0.000000 0.365793 8.036080 0.251547 -20.389199 -20.958564 2.004690 10.368048 -21.929793 -0.845529 0.000000 0.000000 0.000000 -0.096381 8.145941 -1.150471 -2.087598 12.235083 13.658174 0.465761 -1.489934 -2.179746 -59.372266 7.581663 -18.763180 -31.772093 -28.745510 4.045670 0.000000 0.000000 0.000000 -0.804303 7.906501 -0.337023 5.622371 2.863393 -0.037331 -1.176206 3.843866 2.917413 26.951237 -51.260481 68.742883 -10.277311 39.283727 34.229746 0.000000 0.000000 0.000000 
4.531860 98.964508 6.919727 0.000000 0.000000 0.000000 0.534367 36.391842 2.732379 -34.855760 -15.037239 -4.960440 25.465609 3.711603 -1.485514 7.145613 6.211825 -1.951143 -1.873396 1.186861 -2.875360 0.000000 0.000000 0.000000 0.024584 38.367570 2.762369 12.677845 -28.501642 -6.608468 15.115521 -13.846272 -0.461743 -12.961781 -27.778697 24.578810 -5.402781 -0.953432 -0.558492 0.000000 0.000000 0.000000 3.231122 33.737545 2.633416 -2.396554 6.777867 8.859774 5.663361 9.466555 -2.589618 0.448703 -0.936089 0.010394 0.000000 0.000000 0.000000 0.538254 8.966263 -1.074298 -23.894245 -25.198627 4.720975 12.352241 -25.058258 1.133200 0.000000 0.000000 0.000000 -0.105839 9.115622 -2.391114 -2.270733 14.455964 8.086106 1.187760 -2.369973 -0.921937 -64.525412 8.084911 -24.693451 -35.589708 -26.918846 0.093398 0.000000 0.000000 0.000000 -0.238843 8.945322 -1.569086 5.303391 4.687491 2.136836 -2.105409 3.797895 3.138884 17.617985 -44.203943 62.816246 -4.045475 39.604797 26.888303 0.000000 0.000000 0.000000 
